<svg width="150" height="150" viewBox="0 0 150 150" fill="none" xmlns="http://www.w3.org/2000/svg">
<path d="M74.5312 139.219C41.8359 139.219 6.5625 118.711 6.5625 73.7109C6.5625 28.7109 41.8359 8.20312 74.5312 8.20312C92.6953 8.20312 109.453 14.1797 121.875 25.0781C135.352 37.0312 142.5 53.9063 142.5 73.7109C142.5 93.5156 135.352 110.273 121.875 122.227C109.453 133.125 92.5781 139.219 74.5312 139.219Z" fill="url(#paint0_radial_51_6178)"/>
<path d="M130.652 34.7695C136.898 44.8477 140.156 56.8477 140.156 70.1953C140.156 90 133.008 106.758 119.531 118.711C107.109 129.609 90.2344 135.703 72.1875 135.703C51.0234 135.703 28.7812 127.09 15.7266 108.82C28.3359 129.516 52.043 139.219 74.5312 139.219C92.5781 139.219 109.453 133.125 121.875 122.227C135.352 110.273 142.5 93.5156 142.5 73.7109C142.5 58.7813 138.434 45.5156 130.652 34.7695Z" fill="#EB8F00"/>
<path opacity="0.8" d="M31.9336 102.34C43.2597 102.34 52.4414 93.1582 52.4414 81.832C52.4414 70.5059 43.2597 61.3242 31.9336 61.3242C20.6074 61.3242 11.4258 70.5059 11.4258 81.832C11.4258 93.1582 20.6074 102.34 31.9336 102.34Z" fill="url(#paint1_radial_51_6178)"/>
<path opacity="0.8" d="M118.066 102.34C129.393 102.34 138.574 93.1582 138.574 81.832C138.574 70.5059 129.393 61.3242 118.066 61.3242C106.74 61.3242 97.5586 70.5059 97.5586 81.832C97.5586 93.1582 106.74 102.34 118.066 102.34Z" fill="url(#paint2_radial_51_6178)"/>
<path d="M55.2889 41.7298C57.9959 41.7649 58.781 38.0618 55.91 37.4524C53.7654 37.0188 51.41 36.9603 49.0779 37.2532C42.5506 37.9681 36.9256 41.3313 33.2576 45.7142C31.4295 47.9642 34.4178 50.3313 36.41 48.6556C41.5076 44.5188 48.2342 41.7884 55.2889 41.7298Z" fill="#422B0D"/>
<path d="M93.7963 42.5259C91.1127 42.8306 89.9643 39.2212 92.7533 38.3306C94.851 37.6978 97.183 37.4048 99.5268 37.4634C106.089 37.5337 112.019 40.3228 116.109 44.3306C118.148 46.3931 115.406 49.0415 113.261 47.565C107.777 43.9439 100.816 41.8931 93.7963 42.5259Z" fill="#422B0D"/>
<path d="M74.9999 112.733C87.6561 112.733 95.8592 103.476 98.0858 99.1396C98.9061 97.499 98.9061 96.0928 98.203 95.5068C97.6171 95.0381 96.7967 95.0381 95.7421 95.5068C95.3905 95.624 95.0389 95.8584 94.6874 96.0928C89.0624 100.077 82.1483 102.538 74.9999 102.538C67.8514 102.538 60.9374 100.077 55.3124 96.21C54.9608 95.9756 54.6092 95.7412 54.2577 95.624C53.203 95.1553 52.3827 95.1553 51.7967 95.624C51.0936 96.3271 51.0936 97.6162 51.9139 99.2568C54.1405 103.476 62.3436 112.733 74.9999 112.733Z" fill="#422B0D"/>
<path d="M60.4688 71.9888L60.2344 71.7544C60.1172 71.6372 59.7657 71.2856 59.6485 71.1685C59.4141 70.9341 59.1797 70.8169 58.8282 70.4653C58.4766 70.231 58.125 69.8794 57.6563 69.645C57.1875 69.4106 56.7188 69.0591 56.25 68.8247C55.7813 68.5903 55.1953 68.356 54.6094 68.1216C54.0235 67.8872 53.4375 67.77 52.8516 67.6528C52.2656 67.5356 51.6797 67.5356 50.9766 67.5356H50.7422H50.3906C50.0391 67.5356 50.0391 67.5356 49.9219 67.5356C49.6875 67.5356 49.336 67.6528 49.1016 67.6528C48.5157 67.77 47.9297 67.8872 47.3438 68.1216C46.7578 68.356 46.1719 68.4731 45.7031 68.8247C45.2344 69.0591 44.7656 69.2935 44.2969 69.645C43.4766 70.231 42.7735 70.8169 42.3047 71.1685C41.836 71.6372 41.6016 71.8716 41.6016 71.8716L41.3672 72.106C39.961 73.5122 37.6172 73.5122 35.9766 72.3403C34.8047 71.4028 34.4531 69.7622 35.0391 68.5903L35.1563 68.2388C35.2735 68.0044 35.3906 67.6528 35.625 67.3013C36.0938 66.481 36.9141 65.3091 38.2031 64.02C38.7891 63.4341 39.6094 62.731 40.4297 62.145C41.25 61.5591 42.3047 60.9731 43.3594 60.5044C44.4141 60.0356 45.7031 59.5669 46.875 59.3325C47.461 59.2153 48.1641 59.0981 48.8672 58.981C49.2188 58.981 49.6875 58.8638 49.8047 58.8638H50.7422C52.0313 58.8638 53.3203 58.981 54.6094 59.2153C55.8985 59.4497 57.0703 59.9185 58.125 60.3872C59.1797 60.856 60.2344 61.4419 61.0547 62.0278C61.9922 62.6138 62.6953 63.1997 63.2813 63.9028C63.8672 64.4888 64.4532 65.0747 64.8047 65.6606C65.0391 65.895 65.1563 66.2466 65.3907 66.481C65.5078 66.7153 65.7422 66.9497 65.8594 67.1841C66.211 67.6528 66.211 67.8872 66.3281 68.1216C66.4453 68.356 66.4453 68.356 66.4453 68.356C67.2657 70.1138 66.3282 72.106 64.336 72.8091C63.2813 73.395 61.5235 73.0435 60.4688 71.9888Z" fill="#422B0D"/>
<path d="M108.411 71.5674C108.411 71.5674 108.329 71.4854 108.177 71.333C108.048 71.2041 107.755 70.876 107.579 70.7471C107.356 70.5596 107.087 70.3369 106.771 70.0791C106.431 69.8213 106.044 69.54 105.622 69.2471C105.188 68.9775 104.72 68.6963 104.216 68.4502C103.724 68.1807 103.161 67.9932 102.599 67.7822C102.036 67.583 101.438 67.4775 100.841 67.3486C100.243 67.2549 99.6221 67.208 99.001 67.208C99.3525 67.208 99.0947 67.208 99.165 67.208H99.1533H99.1299H99.083H98.9893H98.8018L98.4385 67.2197C98.1338 67.2197 98.0869 67.2432 97.9697 67.2549C97.7822 67.2549 97.4424 67.3135 97.1494 67.3604C96.5518 67.4893 95.9541 67.5947 95.3916 67.7939C94.8408 68.0049 94.2783 68.1924 93.7861 68.4619C93.2822 68.7197 92.8135 68.9893 92.3799 69.2588C91.5361 69.8213 90.8447 70.3838 90.3877 70.8057C89.9189 71.2275 89.6494 71.4854 89.6494 71.4854L89.3564 71.7783C87.9385 73.1494 85.5479 73.2314 84.001 71.9775C82.7822 70.9814 82.4775 69.4463 83.0869 68.1689C83.0869 68.1689 83.1455 68.0518 83.2627 67.8174C83.3799 67.5947 83.5205 67.2432 83.7783 66.833C84.2588 66.001 85.0557 64.8291 86.3213 63.5986C86.9541 62.9893 87.6924 62.3447 88.5713 61.7588C89.4268 61.1494 90.4228 60.5986 91.5244 60.1182C92.626 59.6494 93.8213 59.2393 95.0869 58.9814C95.7314 58.8643 96.3291 58.7471 97.1143 58.6768C97.4775 58.6416 97.9111 58.6064 98.0986 58.5947L99.001 58.5596C100.325 58.583 101.638 58.7236 102.915 58.9697C104.181 59.2275 105.376 59.6377 106.478 60.1064C107.567 60.5869 108.575 61.1377 109.431 61.7471C110.31 62.333 111.036 62.9658 111.669 63.5869C112.302 64.1963 112.806 64.8057 113.228 65.3564C113.427 65.6377 113.614 65.8955 113.79 66.1416C113.954 66.4111 114.118 66.6572 114.247 66.8799C114.563 67.3721 114.587 67.5596 114.704 67.7822C114.786 67.9697 114.833 68.0752 114.833 68.0752C115.618 69.8213 114.669 71.8018 112.712 72.5049C111.177 73.0557 109.454 72.6338 108.411 71.5674Z" fill="#422B0D"/>
<defs>
<radialGradient id="paint0_radial_51_6178" cx="0" cy="0" r="1" gradientUnits="userSpaceOnUse" gradientTransform="translate(74.5312 73.7108) scale(66.7496 66.7496)">
<stop offset="0.5" stop-color="#FDE030"/>
<stop offset="0.9188" stop-color="#F7C02B"/>
<stop offset="1" stop-color="#F4A223"/>
</radialGradient>
<radialGradient id="paint1_radial_51_6178" cx="0" cy="0" r="1" gradientUnits="userSpaceOnUse" gradientTransform="translate(31.9342 81.8305) scale(22.3102 21.1936)">
<stop stop-color="#ED7770"/>
<stop offset="0.9" stop-color="#ED7770" stop-opacity="0"/>
</radialGradient>
<radialGradient id="paint2_radial_51_6178" cx="0" cy="0" r="1" gradientUnits="userSpaceOnUse" gradientTransform="translate(118.069 81.8305) scale(22.3102 21.1936)">
<stop stop-color="#ED7770"/>
<stop offset="0.9" stop-color="#ED7770" stop-opacity="0"/>
</radialGradient>
</defs>
</svg>
