<svg width="151" height="150" viewBox="0 0 151 150" fill="none" xmlns="http://www.w3.org/2000/svg">
<path d="M75.0312 139.219C42.3359 139.219 7.0625 118.711 7.0625 73.7109C7.0625 28.7109 42.3359 8.20312 75.0312 8.20312C93.1953 8.20312 109.953 14.1797 122.375 25.0781C135.852 37.0312 143 53.9063 143 73.7109C143 93.5156 135.852 110.273 122.375 122.227C109.953 133.125 93.0781 139.219 75.0312 139.219Z" fill="url(#paint0_radial_51_6175)"/>
<path d="M131.152 34.7695C137.398 44.8477 140.656 56.8477 140.656 70.1953C140.656 90 133.508 106.758 120.031 118.711C107.609 129.609 90.7344 135.703 72.6875 135.703C51.5234 135.703 29.3281 127.09 16.2266 108.82C28.8359 129.516 52.5547 139.219 75.0312 139.219C93.0781 139.219 109.953 133.125 122.375 122.227C135.852 110.273 143 93.5156 143 73.7109C143 58.7813 138.934 45.5156 131.152 34.7695Z" fill="#EB8F00"/>
<path d="M52.0625 47.9761C47.1523 47.9761 42.6875 52.1245 42.6875 59.0151C42.6875 65.9058 47.1523 70.0425 52.0625 70.0425C56.9844 70.0425 61.4375 65.894 61.4375 59.0151C61.4375 52.1362 57.0312 47.9761 52.0625 47.9761Z" fill="#422B0D"/>
<path d="M51.6518 52.5823C49.9877 51.7854 47.9838 52.4886 47.1752 54.1526C46.5541 55.4534 46.8354 57.012 47.8784 58.0198C49.5424 58.8167 51.5463 58.1136 52.3549 56.4495C52.976 55.1487 52.6948 53.5901 51.6518 52.5823Z" fill="#896024"/>
<path d="M97.0625 47.9761C92.1523 47.9761 87.6875 52.1245 87.6875 59.0151C87.6875 65.9058 92.1523 70.0425 97.0625 70.0425C101.973 70.0425 106.438 65.894 106.438 59.0151C106.438 52.1362 101.973 47.9761 97.0625 47.9761Z" fill="#422B0D"/>
<path d="M96.5922 52.5823C94.9282 51.7854 92.9243 52.4886 92.1157 54.1526C91.4946 55.4534 91.7758 57.012 92.8188 58.0198C94.4829 58.8167 96.4868 58.1136 97.2954 56.4495C97.9165 55.1487 97.6352 53.5901 96.5922 52.5823Z" fill="#896024"/>
<path d="M75.7096 91.6274C86.3385 91.5337 96.5104 96.0102 103.624 103.909C104.163 104.53 104.292 105.409 103.952 106.159C103.612 106.92 102.862 107.413 102.03 107.424C101.655 107.424 101.28 107.319 100.952 107.131C95.3033 103.885 85.858 99.854 75.733 99.854H75.5689C65.4557 99.854 55.9986 103.885 50.3619 107.131C50.0338 107.319 49.6588 107.424 49.2838 107.424C48.4518 107.413 47.7135 106.92 47.3736 106.159C47.0221 105.409 47.151 104.53 47.7018 103.909C54.815 96.0102 64.9752 91.5337 75.6041 91.6274" fill="#422B0D"/>
<defs>
<radialGradient id="paint0_radial_51_6175" cx="0" cy="0" r="1" gradientUnits="userSpaceOnUse" gradientTransform="translate(75.0312 73.7109) scale(66.7496 66.7496)">
<stop offset="0.5" stop-color="#FDE030"/>
<stop offset="0.92" stop-color="#F7C02B"/>
<stop offset="1" stop-color="#F4A223"/>
</radialGradient>
</defs>
</svg>
