<svg width="150" height="150" viewBox="0 0 150 150" fill="none" xmlns="http://www.w3.org/2000/svg">
<path d="M74.5312 139.219C41.8359 139.219 6.5625 118.711 6.5625 73.7109C6.5625 28.7109 41.8359 8.20312 74.5312 8.20312C92.6953 8.20312 109.453 14.1797 121.875 25.0781C135.352 37.0312 142.5 53.9063 142.5 73.7109C142.5 93.5156 135.352 110.273 121.875 122.227C109.453 133.125 92.5781 139.219 74.5312 139.219Z" fill="url(#paint0_radial_51_6181)"/>
<path d="M130.652 34.7695C136.898 44.8477 140.156 56.8477 140.156 70.1953C140.156 90 133.008 106.758 119.531 118.711C107.109 129.609 90.2344 135.703 72.1875 135.703C51.0234 135.703 28.8281 127.09 15.7266 108.82C28.3359 129.516 52.0547 139.219 74.5312 139.219C92.5781 139.219 109.453 133.125 121.875 122.227C135.352 110.273 142.5 93.5156 142.5 73.7109C142.5 58.7813 138.434 45.5156 130.652 34.7695Z" fill="#EB8F00"/>
<path d="M96.8535 39.3975C101.318 39.3975 105.361 46.0186 105.361 56.9756C105.361 67.9326 101.318 74.5537 96.8535 74.5537C92.4004 74.5537 88.3574 67.9443 88.3574 56.9756C88.3574 46.0068 92.4004 39.3975 96.8535 39.3975Z" fill="#422B0D"/>
<path d="M53.0498 39.3975C48.3037 39.3975 43.9795 46.0186 43.9795 56.9756C43.9795 67.9326 48.3037 74.5537 53.0498 74.5537C57.8076 74.5537 62.1318 67.9443 62.1318 56.9756C62.1318 46.0068 57.8076 39.3975 53.0498 39.3975Z" fill="#422B0D"/>
<path d="M52.7932 43.6981C51.3752 42.8426 49.5354 43.3114 48.6799 44.7293C48.6565 44.7762 48.6213 44.8231 48.5979 44.87C47.5198 46.1239 47.6487 48.0223 48.9026 49.1004C48.9377 49.1356 48.9729 49.159 49.0198 49.1942C50.426 50.0497 52.2659 49.5926 53.1213 48.1864C53.1565 48.1278 53.1799 48.0809 53.2151 48.0223C54.2932 46.7567 54.1526 44.8583 52.8869 43.7801C52.8518 43.745 52.8283 43.7215 52.7932 43.6981Z" fill="#896024"/>
<path d="M97.5126 43.6986C96.0829 42.8549 94.2314 43.3236 93.3876 44.7533C93.3642 44.7884 93.3407 44.8353 93.3173 44.8705C92.2509 46.1478 92.4267 48.0345 93.704 49.101C93.7158 49.1127 93.7392 49.1244 93.7509 49.1361C95.1572 49.9916 96.997 49.5345 97.8525 48.1283C97.8876 48.0697 97.9111 48.0228 97.9462 47.9642C99.0126 46.6869 98.8368 44.8002 97.5595 43.7338C97.5478 43.722 97.5243 43.7103 97.5126 43.6986Z" fill="#896024"/>
<path d="M119.614 83.9293C117.973 80.9645 114.411 79.6637 111.246 80.859C99.223 84.3629 86.7543 86.109 74.2269 86.0504C61.6996 86.109 49.2309 84.3629 37.2074 80.859C34.0551 79.6637 30.4926 80.9528 28.8519 83.9059C27.2582 86.8473 28.4066 90.2575 29.7543 93.1989C37.2777 109.722 53.8598 119.613 74.1332 119.672H74.3207C94.5941 119.672 111.176 109.722 118.711 93.1989C120.047 90.234 121.207 86.8707 119.614 83.9293Z" fill="#422B0D"/>
<path d="M92.9893 115.007C92.5557 114.608 92.1104 114.245 91.665 113.835C86.8838 109.628 80.6963 107.366 74.3213 107.495C67.7588 107.389 61.3721 109.569 56.251 113.671C55.8057 114.034 55.3369 114.386 54.9033 114.843C54.4697 115.3 54.2354 115.628 53.9541 116.014C60.3994 118.534 67.2666 119.823 74.1924 119.788H74.3799C81.0127 119.788 87.5869 118.604 93.7979 116.272C93.5635 115.827 93.2939 115.405 92.9893 115.007Z" fill="#ED7770"/>
<path d="M111.246 80.8591C99.2227 84.363 86.7539 86.1091 74.2266 86.0505C61.6992 86.1091 49.2305 84.363 37.207 80.8591C34.0547 79.6638 30.4922 80.9528 28.8516 83.906C28.6172 84.3513 28.4297 84.82 28.3125 85.3005C28.6992 85.4997 29.1445 85.6989 29.6719 85.9099C43.7812 92.9763 59.3789 96.5622 75.1523 96.3747C90.2812 96.5505 105.234 93.2575 118.898 86.7653C119.449 86.531 119.906 86.3083 120.316 86.0974C120.223 85.3356 119.977 84.5856 119.613 83.906C117.973 80.9528 114.41 79.6521 111.246 80.8591Z" fill="white"/>
<path d="M119.661 83.941C117.996 80.9762 114.422 79.6637 111.235 80.859C99.2113 84.3629 86.7426 86.109 74.2269 86.0504C61.6996 86.109 49.2309 84.3629 37.2074 80.859C34.0551 79.6637 30.4926 80.9528 28.8519 83.9059C27.2582 86.8473 28.4066 90.2575 29.7543 93.1989C30.3519 94.5231 31.0199 95.8239 31.7582 97.0778C31.7582 97.0778 29.2973 87.9606 31.4301 85.3121C32.1566 84.1871 33.3754 83.484 34.7113 83.4137C35.2621 83.4137 35.8012 83.5075 36.3285 83.6715C48.5629 87.2692 61.2543 89.0856 74.016 89.0621H74.4262C87.1879 89.0856 99.8793 87.2692 112.114 83.6715C112.641 83.5075 113.18 83.4137 113.731 83.4137C115.067 83.484 116.297 84.1871 117.024 85.3121C119.192 87.9606 116.696 97.1129 116.696 97.1129C117.422 95.859 118.149 94.5699 118.758 93.234C120.094 90.2926 121.254 86.8942 119.661 83.941Z" fill="#EB8F00"/>
<defs>
<radialGradient id="paint0_radial_51_6181" cx="0" cy="0" r="1" gradientUnits="userSpaceOnUse" gradientTransform="translate(74.5312 73.7109) scale(66.7496 66.7496)">
<stop offset="0.5" stop-color="#FDE030"/>
<stop offset="0.92" stop-color="#F7C02B"/>
<stop offset="1" stop-color="#F4A223"/>
</radialGradient>
</defs>
</svg>
