<svg width="150" height="150" viewBox="0 0 150 150" fill="none" xmlns="http://www.w3.org/2000/svg">
<path d="M74.5312 139.219C41.8359 139.219 6.5625 118.711 6.5625 73.7109C6.5625 28.7109 41.8359 8.20312 74.5312 8.20312C92.6953 8.20312 109.453 14.1797 121.875 25.0781C135.352 37.0312 142.5 53.9063 142.5 73.7109C142.5 93.5156 135.352 110.273 121.875 122.227C109.453 133.125 92.5781 139.219 74.5312 139.219Z" fill="url(#paint0_radial_51_6184)"/>
<path d="M130.652 34.7695C136.898 44.8477 140.156 56.8477 140.156 70.1953C140.156 90 133.008 106.758 119.531 118.711C107.109 129.609 90.2344 135.703 72.1875 135.703C51.0234 135.703 28.8281 127.09 15.7266 108.82C28.3359 129.516 52.0547 139.219 74.5312 139.219C92.5781 139.219 109.453 133.125 121.875 122.227C135.352 110.273 142.5 93.5156 142.5 73.7109C142.5 58.7813 138.434 45.5156 130.652 34.7695Z" fill="#EB8F00"/>
<g filter="url(#filter0_d_51_6184)">
<path d="M116.966 19.7937L120.482 36.1062C120.751 37.3601 121.677 38.3679 122.908 38.7312L138.587 43.4187C139.759 43.8405 140.369 45.1296 139.947 46.3015C139.783 46.7702 139.466 47.1569 139.044 47.4265L124.982 55.0671C123.798 55.6648 123.048 56.8835 123.048 58.2077L123.189 75.3054C123.154 76.5359 122.122 77.5085 120.88 77.4733C120.388 77.4616 119.908 77.2858 119.533 76.9694L107.251 65.9421C106.302 65.0749 104.954 64.8054 103.736 65.2273L88.1498 70.5358C86.9545 70.8757 85.7123 70.1843 85.3607 68.989C85.2201 68.5202 85.2435 68.0163 85.431 67.5593L92.2982 51.8913C92.8138 50.696 92.6381 49.3249 91.8295 48.3054L81.8568 35.7312C81.1654 34.6882 81.4467 33.2937 82.4779 32.5905C82.8763 32.321 83.3568 32.1921 83.849 32.2155L100.126 34.0671C101.404 34.2077 102.646 33.6452 103.384 32.6023L113.017 18.9851C113.779 18.0007 115.197 17.8249 116.169 18.5983C116.568 18.903 116.837 19.3132 116.966 19.7937Z" fill="url(#paint1_linear_51_6184)"/>
</g>
<path d="M113.239 35.5545L114.411 24.3045C114.493 23.6834 114.587 22.6053 115.583 22.8045C116.368 22.9685 116.45 24.6678 116.45 24.6678L117.973 34.2068C118.536 37.8279 117.786 38.8943 116.426 39.3162C114.844 39.8435 112.911 38.7771 113.239 35.5545Z" fill="#FFE45A"/>
<path d="M123.809 53.9064L134.907 48.4103C135.458 48.1056 136.442 47.6486 135.915 46.7931C135.481 46.1251 133.852 46.629 133.852 46.629L124.817 48.1876C122.145 48.5392 120.223 49.4767 119.743 51.0587C119.122 53.0978 120.704 55.1486 123.809 53.9064Z" fill="#D3A225"/>
<g filter="url(#filter1_d_51_6184)">
<path d="M38.0862 16.9923L47.4612 30.7501C48.1877 31.8048 49.4182 32.379 50.6956 32.2618L67.0081 30.6563C68.2502 30.6212 69.2932 31.5938 69.3284 32.836C69.3401 33.3165 69.2112 33.7852 68.9417 34.172L58.8284 46.629C58.0081 47.6368 57.8088 49.0079 58.3127 50.2032L64.9338 65.9649C65.3674 67.1251 64.7815 68.4259 63.6213 68.8595C63.1526 69.0352 62.6487 69.047 62.1682 68.9063L46.6174 63.3634C45.4104 62.9298 44.0627 63.1759 43.1018 64.0196L30.7034 74.8595C29.7424 75.6329 28.3362 75.4806 27.551 74.5196C27.2346 74.1329 27.0588 73.6407 27.0588 73.1485L27.4456 56.0509C27.4807 54.7501 26.7893 53.5548 25.6643 52.9103L11.719 45.0587C10.6643 44.4259 10.3128 43.0431 10.9573 41.9884C11.2268 41.5313 11.6604 41.1798 12.1643 41.0157L27.926 36.5392C29.1448 36.1993 30.0823 35.2149 30.387 33.9845L34.1252 17.7306C34.4651 16.5352 35.7073 15.8438 36.9026 16.1837C37.3713 16.3126 37.7932 16.6056 38.0862 16.9923Z" fill="url(#paint2_linear_51_6184)"/>
</g>
<path d="M40.6174 32.9876L37.4065 22.136C37.2541 21.5267 36.926 20.4954 37.9104 20.3079C38.6955 20.1556 39.4338 21.7025 39.4338 21.7025L44.4494 29.9056C46.3596 33.0462 46.0549 34.3001 44.965 35.2142C43.8752 36.1282 41.5315 36.0931 40.6174 32.9876Z" fill="#FFE45A"/>
<path d="M57.3507 45.8896L65.5539 36.5849C65.9523 36.1044 66.7257 35.3075 65.8586 34.7216C65.214 34.2528 63.9015 35.3427 63.9015 35.3427L56.132 40.2177C53.7882 41.5536 52.3703 43.1474 52.5343 44.7997C52.7336 46.9794 54.9601 48.2685 57.3507 45.8896Z" fill="#D3A225"/>
<path d="M119.614 83.9288C117.973 80.964 114.411 79.6632 111.246 80.8585C99.223 84.3624 86.7543 86.1085 74.2269 86.0499C61.6996 86.1085 49.2309 84.3624 37.2074 80.8585C34.0551 79.6632 30.4926 80.9523 28.8519 83.9054C27.2582 86.8468 28.4066 90.257 29.7543 93.1984C37.2777 109.722 53.8598 119.612 74.1332 119.671H74.3207C94.5941 119.671 111.176 109.722 118.711 93.1984C120.047 90.2335 121.207 86.8702 119.614 83.9288Z" fill="#422B0D"/>
<path d="M92.9893 115.009C92.5557 114.611 92.1104 114.247 91.665 113.837C86.8838 109.63 80.6963 107.369 74.3213 107.497C67.7588 107.392 61.3721 109.572 56.251 113.673C55.8057 114.036 55.3369 114.388 54.9033 114.845C54.4697 115.302 54.2354 115.63 53.9541 116.017C60.3994 118.536 67.2666 119.826 74.1924 119.79H74.3799C81.0127 119.79 87.5869 118.607 93.7979 116.275C93.5635 115.829 93.2939 115.408 92.9893 115.009Z" fill="#ED7770"/>
<path d="M111.246 80.8591C99.2227 84.363 86.7539 86.1091 74.2266 86.0505C61.6992 86.1091 49.2305 84.363 37.207 80.8591C34.0547 79.6638 30.4922 80.9528 28.8516 83.906C28.6172 84.3513 28.4297 84.82 28.3125 85.3005C28.6992 85.4997 29.1445 85.6989 29.6719 85.9099C43.7812 92.9763 59.3789 96.5622 75.1523 96.3747C90.2812 96.5505 105.234 93.2575 118.898 86.7653C119.449 86.531 119.906 86.3083 120.316 86.0974C120.223 85.3356 119.977 84.5856 119.613 83.906C117.973 80.9528 114.41 79.6521 111.246 80.8591Z" fill="white"/>
<path d="M119.661 83.9406C117.996 80.9757 114.422 79.6632 111.235 80.8585C99.2113 84.3624 86.7426 86.1085 74.2269 86.0499C61.6996 86.1085 49.2309 84.3624 37.2074 80.8585C34.0551 79.6632 30.4926 80.9523 28.8519 83.9054C27.2582 86.8468 28.4066 90.257 29.7543 93.1984C30.3519 94.5226 31.0199 95.8234 31.7582 97.0773C31.7582 97.0773 29.2973 87.9601 31.4301 85.3117C32.1566 84.1867 33.3754 83.4835 34.7113 83.4132C35.2621 83.4132 35.8012 83.507 36.3285 83.671C48.5629 87.2687 61.2543 89.0851 74.016 89.0617H74.4262C87.1879 89.0851 99.8793 87.2687 112.114 83.671C112.641 83.507 113.18 83.4132 113.731 83.4132C115.067 83.4835 116.297 84.1867 117.024 85.3117C119.192 87.9601 116.696 97.1124 116.696 97.1124C117.422 95.8585 118.149 94.5695 118.758 93.2335C120.094 90.2921 121.254 86.8937 119.661 83.9406Z" fill="#EB8F00"/>
<defs>
<filter id="filter0_d_51_6184" x="77.4775" y="16.1157" width="66.6025" height="67.3584" filterUnits="userSpaceOnUse" color-interpolation-filters="sRGB">
<feFlood flood-opacity="0" result="BackgroundImageFix"/>
<feColorMatrix in="SourceAlpha" type="matrix" values="0 0 0 0 0 0 0 0 0 0 0 0 0 0 0 0 0 0 127 0" result="hardAlpha"/>
<feOffset dy="2"/>
<feGaussianBlur stdDeviation="2"/>
<feComposite in2="hardAlpha" operator="out"/>
<feColorMatrix type="matrix" values="0 0 0 0 0 0 0 0 0 0 0 0 0 0 0 0 0 0 0.12 0"/>
<feBlend mode="normal" in2="BackgroundImageFix" result="effect1_dropShadow_51_6184"/>
<feBlend mode="normal" in="SourceGraphic" in2="effect1_dropShadow_51_6184" result="shape"/>
</filter>
<filter id="filter1_d_51_6184" x="6.63379" y="14.0972" width="66.6953" height="67.2559" filterUnits="userSpaceOnUse" color-interpolation-filters="sRGB">
<feFlood flood-opacity="0" result="BackgroundImageFix"/>
<feColorMatrix in="SourceAlpha" type="matrix" values="0 0 0 0 0 0 0 0 0 0 0 0 0 0 0 0 0 0 127 0" result="hardAlpha"/>
<feOffset dy="2"/>
<feGaussianBlur stdDeviation="2"/>
<feComposite in2="hardAlpha" operator="out"/>
<feColorMatrix type="matrix" values="0 0 0 0 0 0 0 0 0 0 0 0 0 0 0 0 0 0 0.12 0"/>
<feBlend mode="normal" in2="BackgroundImageFix" result="effect1_dropShadow_51_6184"/>
<feBlend mode="normal" in="SourceGraphic" in2="effect1_dropShadow_51_6184" result="shape"/>
</filter>
<radialGradient id="paint0_radial_51_6184" cx="0" cy="0" r="1" gradientUnits="userSpaceOnUse" gradientTransform="translate(74.5312 73.7109) scale(66.7496 66.7496)">
<stop offset="0.5" stop-color="#FDE030"/>
<stop offset="0.92" stop-color="#F7C02B"/>
<stop offset="1" stop-color="#F4A223"/>
</radialGradient>
<linearGradient id="paint1_linear_51_6184" x1="107.802" y1="30.0392" x2="137.869" y2="65.0016" gradientUnits="userSpaceOnUse">
<stop stop-color="#FEDE32"/>
<stop offset="0.920635" stop-color="#CB9822"/>
</linearGradient>
<linearGradient id="paint2_linear_51_6184" x1="37" y1="28" x2="67" y2="63" gradientUnits="userSpaceOnUse">
<stop stop-color="#FEDE32"/>
<stop offset="0.920635" stop-color="#CB9822"/>
</linearGradient>
</defs>
</svg>
